<svg width="1056" height="1078" viewBox="0 0 1056 1078" fill="none" xmlns="http://www.w3.org/2000/svg">
<path d="M1041.86 8.16016L1034.93 20.1602L955.675 157.431L953.365 161.431H425.338C336.105 161.431 263.768 233.769 263.768 323.001C263.768 412.027 338.473 484.497 425.198 484.57H529.031L522.103 496.57L193.435 1065.84L191.125 1069.84H14.1436L21.0723 1057.84L283.118 603.961C180.708 552.021 110.497 445.718 110.497 323C110.497 149.119 251.457 8.16016 425.338 8.16016H1041.86ZM738.351 251.307L817.604 388.577L819.913 392.577L817.604 396.577L687.547 621.841H952.278L954.588 625.841L1033.84 763.111L1040.77 775.111H599.057L431.205 1065.84L428.896 1069.84H251.914L258.842 1057.84L724.494 251.307L731.422 239.307L738.351 251.307Z" fill="black" stroke="black" stroke-width="16"/>
</svg>
